<svg width="24" height="25" viewBox="0 0 24 25" fill="none" xmlns="http://www.w3.org/2000/svg">
<mask id="path-1-outside-1_10_965" maskUnits="userSpaceOnUse" x="4.40039" y="3.2002" width="15" height="19" fill="black">
<rect fill="white" x="4.40039" y="3.2002" width="15" height="19"/>
<path d="M12.4712 4.26862C12.1643 4.17739 11.8376 4.17739 11.5307 4.26862L8.3792 5.20362C8.15405 5.27053 7.95657 5.40843 7.81622 5.59676C7.67586 5.78509 7.60016 6.01375 7.6004 6.24862V10.9346C7.60005 11.1719 7.67645 11.403 7.8182 11.5933C7.95994 11.7836 8.15943 11.923 8.3869 11.9906L11.4581 12.9025C11.4529 12.9331 11.4504 12.964 11.4504 12.9949V14.0949H9.8004C9.21692 14.0949 8.65734 14.3267 8.24476 14.7393C7.83218 15.1519 7.6004 15.7114 7.6004 16.2949V16.3499C6.93267 16.4862 6.33934 16.8656 5.93544 17.4145C5.53153 17.9634 5.34583 18.6427 5.41432 19.3208C5.48282 19.9988 5.80064 20.6273 6.30616 21.0843C6.81169 21.5413 7.4689 21.7944 8.1504 21.7944C8.83189 21.7944 9.48911 21.5413 9.99463 21.0843C10.5002 20.6273 10.818 19.9988 10.8865 19.3208C10.955 18.6427 10.7693 17.9634 10.3654 17.4145C9.96145 16.8656 9.36812 16.4862 8.7004 16.3499V16.2949C8.7004 16.0032 8.81629 15.7234 9.02258 15.5171C9.22887 15.3108 9.50866 15.1949 9.8004 15.1949H14.2004C14.4921 15.1949 14.7719 15.3108 14.9782 15.5171C15.1845 15.7234 15.3004 16.0032 15.3004 16.2949V16.3499C14.6327 16.4862 14.0393 16.8656 13.6354 17.4145C13.2315 17.9634 13.0458 18.6427 13.1143 19.3208C13.1828 19.9988 13.5006 20.6273 14.0062 21.0843C14.5117 21.5413 15.1689 21.7944 15.8504 21.7944C16.5319 21.7944 17.1891 21.5413 17.6946 21.0843C18.2002 20.6273 18.518 19.9988 18.5865 19.3208C18.655 18.6427 18.4693 17.9634 18.0654 17.4145C17.6614 16.8656 17.0681 16.4862 16.4004 16.3499V16.2949C16.4004 15.7114 16.1686 15.1519 15.756 14.7393C15.3435 14.3267 14.7839 14.0949 14.2004 14.0949H12.5504V12.9949C12.5505 12.9636 12.5479 12.9323 12.5427 12.9014L15.6139 11.9884C15.8408 11.921 16.0399 11.7821 16.1816 11.5924C16.3233 11.4028 16.4 11.1725 16.4004 10.9357V6.25632C16.4005 6.01921 16.324 5.78841 16.1823 5.59831C16.0405 5.40821 15.8412 5.269 15.6139 5.20142L12.4701 4.26752L12.4712 4.26862ZM11.8442 5.32243C11.9461 5.29223 12.0547 5.29223 12.1566 5.32243L15.3004 6.25632V10.9357L12.1566 11.8696C12.0547 11.8998 11.9461 11.8998 11.8442 11.8696L8.7004 10.9346V6.25742L11.8442 5.32243ZM6.5004 19.0449C6.5004 18.6073 6.67424 18.1876 6.98367 17.8782C7.29311 17.5688 7.71279 17.3949 8.1504 17.3949C8.588 17.3949 9.00769 17.5688 9.31712 17.8782C9.62656 18.1876 9.8004 18.6073 9.8004 19.0449C9.8004 19.4825 9.62656 19.9022 9.31712 20.2116C9.00769 20.5211 8.588 20.6949 8.1504 20.6949C7.71279 20.6949 7.29311 20.5211 6.98367 20.2116C6.67424 19.9022 6.5004 19.4825 6.5004 19.0449ZM15.8504 17.3949C16.288 17.3949 16.7077 17.5688 17.0171 17.8782C17.3266 18.1876 17.5004 18.6073 17.5004 19.0449C17.5004 19.4825 17.3266 19.9022 17.0171 20.2116C16.7077 20.5211 16.288 20.6949 15.8504 20.6949C15.4128 20.6949 14.9931 20.5211 14.6837 20.2116C14.3742 19.9022 14.2004 19.4825 14.2004 19.0449C14.2004 18.6073 14.3742 18.1876 14.6837 17.8782C14.9931 17.5688 15.4128 17.3949 15.8504 17.3949Z"/>
</mask>
<path d="M12.4712 4.26862C12.1643 4.17739 11.8376 4.17739 11.5307 4.26862L8.3792 5.20362C8.15405 5.27053 7.95657 5.40843 7.81622 5.59676C7.67586 5.78509 7.60016 6.01375 7.6004 6.24862V10.9346C7.60005 11.1719 7.67645 11.403 7.8182 11.5933C7.95994 11.7836 8.15943 11.923 8.3869 11.9906L11.4581 12.9025C11.4529 12.9331 11.4504 12.964 11.4504 12.9949V14.0949H9.8004C9.21692 14.0949 8.65734 14.3267 8.24476 14.7393C7.83218 15.1519 7.6004 15.7114 7.6004 16.2949V16.3499C6.93267 16.4862 6.33934 16.8656 5.93544 17.4145C5.53153 17.9634 5.34583 18.6427 5.41432 19.3208C5.48282 19.9988 5.80064 20.6273 6.30616 21.0843C6.81169 21.5413 7.4689 21.7944 8.1504 21.7944C8.83189 21.7944 9.48911 21.5413 9.99463 21.0843C10.5002 20.6273 10.818 19.9988 10.8865 19.3208C10.955 18.6427 10.7693 17.9634 10.3654 17.4145C9.96145 16.8656 9.36812 16.4862 8.7004 16.3499V16.2949C8.7004 16.0032 8.81629 15.7234 9.02258 15.5171C9.22887 15.3108 9.50866 15.1949 9.8004 15.1949H14.2004C14.4921 15.1949 14.7719 15.3108 14.9782 15.5171C15.1845 15.7234 15.3004 16.0032 15.3004 16.2949V16.3499C14.6327 16.4862 14.0393 16.8656 13.6354 17.4145C13.2315 17.9634 13.0458 18.6427 13.1143 19.3208C13.1828 19.9988 13.5006 20.6273 14.0062 21.0843C14.5117 21.5413 15.1689 21.7944 15.8504 21.7944C16.5319 21.7944 17.1891 21.5413 17.6946 21.0843C18.2002 20.6273 18.518 19.9988 18.5865 19.3208C18.655 18.6427 18.4693 17.9634 18.0654 17.4145C17.6614 16.8656 17.0681 16.4862 16.4004 16.3499V16.2949C16.4004 15.7114 16.1686 15.1519 15.756 14.7393C15.3435 14.3267 14.7839 14.0949 14.2004 14.0949H12.5504V12.9949C12.5505 12.9636 12.5479 12.9323 12.5427 12.9014L15.6139 11.9884C15.8408 11.921 16.0399 11.7821 16.1816 11.5924C16.3233 11.4028 16.4 11.1725 16.4004 10.9357V6.25632C16.4005 6.01921 16.324 5.78841 16.1823 5.59831C16.0405 5.40821 15.8412 5.269 15.6139 5.20142L12.4701 4.26752L12.4712 4.26862ZM11.8442 5.32243C11.9461 5.29223 12.0547 5.29223 12.1566 5.32243L15.3004 6.25632V10.9357L12.1566 11.8696C12.0547 11.8998 11.9461 11.8998 11.8442 11.8696L8.7004 10.9346V6.25742L11.8442 5.32243ZM6.5004 19.0449C6.5004 18.6073 6.67424 18.1876 6.98367 17.8782C7.29311 17.5688 7.71279 17.3949 8.1504 17.3949C8.588 17.3949 9.00769 17.5688 9.31712 17.8782C9.62656 18.1876 9.8004 18.6073 9.8004 19.0449C9.8004 19.4825 9.62656 19.9022 9.31712 20.2116C9.00769 20.5211 8.588 20.6949 8.1504 20.6949C7.71279 20.6949 7.29311 20.5211 6.98367 20.2116C6.67424 19.9022 6.5004 19.4825 6.5004 19.0449ZM15.8504 17.3949C16.288 17.3949 16.7077 17.5688 17.0171 17.8782C17.3266 18.1876 17.5004 18.6073 17.5004 19.0449C17.5004 19.4825 17.3266 19.9022 17.0171 20.2116C16.7077 20.5211 16.288 20.6949 15.8504 20.6949C15.4128 20.6949 14.9931 20.5211 14.6837 20.2116C14.3742 19.9022 14.2004 19.4825 14.2004 19.0449C14.2004 18.6073 14.3742 18.1876 14.6837 17.8782C14.9931 17.5688 15.4128 17.3949 15.8504 17.3949Z" fill="#213339"/>
<path d="M12.4712 4.26862C12.1643 4.17739 11.8376 4.17739 11.5307 4.26862L8.3792 5.20362C8.15405 5.27053 7.95657 5.40843 7.81622 5.59676C7.67586 5.78509 7.60016 6.01375 7.6004 6.24862V10.9346C7.60005 11.1719 7.67645 11.403 7.8182 11.5933C7.95994 11.7836 8.15943 11.923 8.3869 11.9906L11.4581 12.9025C11.4529 12.9331 11.4504 12.964 11.4504 12.9949V14.0949H9.8004C9.21692 14.0949 8.65734 14.3267 8.24476 14.7393C7.83218 15.1519 7.6004 15.7114 7.6004 16.2949V16.3499C6.93267 16.4862 6.33934 16.8656 5.93544 17.4145C5.53153 17.9634 5.34583 18.6427 5.41432 19.3208C5.48282 19.9988 5.80064 20.6273 6.30616 21.0843C6.81169 21.5413 7.4689 21.7944 8.1504 21.7944C8.83189 21.7944 9.48911 21.5413 9.99463 21.0843C10.5002 20.6273 10.818 19.9988 10.8865 19.3208C10.955 18.6427 10.7693 17.9634 10.3654 17.4145C9.96145 16.8656 9.36812 16.4862 8.7004 16.3499V16.2949C8.7004 16.0032 8.81629 15.7234 9.02258 15.5171C9.22887 15.3108 9.50866 15.1949 9.8004 15.1949H14.2004C14.4921 15.1949 14.7719 15.3108 14.9782 15.5171C15.1845 15.7234 15.3004 16.0032 15.3004 16.2949V16.3499C14.6327 16.4862 14.0393 16.8656 13.6354 17.4145C13.2315 17.9634 13.0458 18.6427 13.1143 19.3208C13.1828 19.9988 13.5006 20.6273 14.0062 21.0843C14.5117 21.5413 15.1689 21.7944 15.8504 21.7944C16.5319 21.7944 17.1891 21.5413 17.6946 21.0843C18.2002 20.6273 18.518 19.9988 18.5865 19.3208C18.655 18.6427 18.4693 17.9634 18.0654 17.4145C17.6614 16.8656 17.0681 16.4862 16.4004 16.3499V16.2949C16.4004 15.7114 16.1686 15.1519 15.756 14.7393C15.3435 14.3267 14.7839 14.0949 14.2004 14.0949H12.5504V12.9949C12.5505 12.9636 12.5479 12.9323 12.5427 12.9014L15.6139 11.9884C15.8408 11.921 16.0399 11.7821 16.1816 11.5924C16.3233 11.4028 16.4 11.1725 16.4004 10.9357V6.25632C16.4005 6.01921 16.324 5.78841 16.1823 5.59831C16.0405 5.40821 15.8412 5.269 15.6139 5.20142L12.4701 4.26752L12.4712 4.26862ZM11.8442 5.32243C11.9461 5.29223 12.0547 5.29223 12.1566 5.32243L15.3004 6.25632V10.9357L12.1566 11.8696C12.0547 11.8998 11.9461 11.8998 11.8442 11.8696L8.7004 10.9346V6.25742L11.8442 5.32243ZM6.5004 19.0449C6.5004 18.6073 6.67424 18.1876 6.98367 17.8782C7.29311 17.5688 7.71279 17.3949 8.1504 17.3949C8.588 17.3949 9.00769 17.5688 9.31712 17.8782C9.62656 18.1876 9.8004 18.6073 9.8004 19.0449C9.8004 19.4825 9.62656 19.9022 9.31712 20.2116C9.00769 20.5211 8.588 20.6949 8.1504 20.6949C7.71279 20.6949 7.29311 20.5211 6.98367 20.2116C6.67424 19.9022 6.5004 19.4825 6.5004 19.0449ZM15.8504 17.3949C16.288 17.3949 16.7077 17.5688 17.0171 17.8782C17.3266 18.1876 17.5004 18.6073 17.5004 19.0449C17.5004 19.4825 17.3266 19.9022 17.0171 20.2116C16.7077 20.5211 16.288 20.6949 15.8504 20.6949C15.4128 20.6949 14.9931 20.5211 14.6837 20.2116C14.3742 19.9022 14.2004 19.4825 14.2004 19.0449C14.2004 18.6073 14.3742 18.1876 14.6837 17.8782C14.9931 17.5688 15.4128 17.3949 15.8504 17.3949Z" stroke="#213339" stroke-width="0.2" mask="url(#path-1-outside-1_10_965)"/>
</svg>
